<svg xmlns="http://www.w3.org/2000/svg" xml:space="preserve" id="Layer_1" x="0" y="0" style="enable-background:new 0 0 48 48" version="1.1" viewBox="0 0 48 48"><path d="M40 48H8c-4.42 0-8-3.58-8-8V8c0-4.42 3.58-8 8-8h32c4.42 0 8 3.58 8 8v32c0 4.42-3.58 8-8 8z" style="fill:#005bc0"/><path d="M7 40c-.8 0-1.5-.3-2.1-.9-.6-.6-.9-1.3-.9-2.1V11c0-.8.3-1.5.9-2.1C5.5 8.3 6.2 8 7 8h34c.8 0 1.5.3 2.1.9.6.6.9 1.3.9 2.1v26c0 .8-.3 1.5-.9 2.1-.6.6-1.3.9-2.1.9H7zm17-15.1L7 13.75V37h34V13.75L24 24.9zm0-3L40.8 11H7.25L24 21.9zM7 13.75V11v26-23.25z" style="fill:#fbbd0e"/></svg>