<svg
  width="16mm"
  height="16mm"
  viewBox="0 0 16 16">
  <defs
    id="Defs" />
  <g
    id="align-vertical-baseline"
    transform="matrix(0.666667,0,0,0.666667,-721.33333,-446.90812)">
    <path
      id="path17558"
      style="connector-curvature:0;opacity:0;fill:none;"
      transform="rotate(90)"
      d="m 670.3622,-1106 h 24 v 24 h -24 z " />
    <path
      id="path17560"
      style="connector-curvature:0;opacity:1;nodetypes:ssscssssssssscsss;"
      d="m 1087.164,675.769 c 0.761,-0.69585 2.0824,-0.41816 2.693,0.3478 0.9557,1.19884 1.2775,2.69167 1.616,4.1129 0.2866,1.20309 0.459,1.9013 0.527,3.1325 0.788,-1.557 1.6618,-2.69641 1.687,-4.4496 0.013,-0.88638 -0.5139,-1.63654 -0.869,-2.4211 -0.2969,-0.65595 0.5063,-1.30106 1.212,-1.1296 0.8443,0.20514 0.9989,1.10406 0.97,1.7768 -0.086,2.00147 -0.8833,3.97973 -1.744,5.7954 -1.1515,2.42912 -2.852,4.67639 -5.076,6.3549 -0.8534,0.64406 -3.1006,1.43542 -4.15,0.97 -2.0412,-0.90529 -2.028,-2.97002 0,-2.9794 0.7884,-0.004 2.5397,1.22938 3.276,1.2167 1.2149,-0.0209 2.081,-1.0492 2.409,-2.0401 0.333,-1.3108 0.049,-2.66989 -0.185,-3.9721 -0.3067,-1.70433 -0.8051,-3.38306 -1.596,-4.9694 -0.2784,-0.55829 -1.6165,-0.9716 -0.77,-1.7457 z " />
    <path
      id="path17562"
      style="opacity:1;nodetypes:sssssscsscccsssssscssssccsssc;connector-curvature:0;"
      d="m 1099.099,681.0002 c -0.2767,0.17092 -0.415,0.4255 -0.415,0.7606 0,0.3078 0.1089,0.55263 0.333,0.7266 0.225,0.17466 0.541,0.258 0.94,0.258 0.498,0 0.9189,-0.16198 1.258,-0.4889 0.3419,-0.32958 0.511,-0.7425 0.511,-1.2359 v -0.2785 h -1.377 c -0.552,0 -0.9697,0.0849 -1.25,0.2581 z m 4.901,3.3615 -2.274,0.024 v -1.3483 c -0.355,0.4618 -0.7541,0.80098 -1.199,1.0119 -0.4431,0.21008 -0.984,0.3123 -1.621,0.3123 -0.858,0 -1.5584,-0.22579 -2.094,-0.6858 -0.5344,-0.459 -0.799,-1.0594 -0.799,-1.7928 0,-0.8919 0.3323,-1.54722 0.999,-1.9626 0.6703,-0.41762 1.722,-0.6248 3.152,-0.6248 h 1.562 v -0.1901 c 0,-0.3848 -0.1668,-0.66397 -0.496,-0.8421 -0.3318,-0.17957 -0.846,-0.2716 -1.547,-0.2716 -0.567,0 -1.1009,-0.0489 -1.5889,0.0552 -0.488,0.10415 -0.7999,0.21292 -1.0941,0.31459 v -1.99452 l 3.164,0.009 c 1.495,0.004 2.1739,0.25014 2.837,0.7908 0.6639,0.54135 0.999,1.4171 0.999,2.63467 z " />
    <path
      id="path17564"
      style="nodetypes:ccccc;opacity:1;fill-opacity:1;connector-curvature:0;"
      d="m 1106,685.3617 -0.0008,0.99999 h -24 l 0.0008,-0.99999 z " />
  </g>
</svg>
