<svg
  width="16mm"
  height="16mm"
  viewBox="0 0 16 16">
  <defs
    id="Defs" />
  <g
    id="align-horizontal-center"
    transform="matrix(0.666667,0,0,0.666666,-746.66667,-396.90779)">
    <path
      id="path22217"
      style="opacity:0;fill:none;connector-curvature:0;"
      transform="scale(-1,1)"
      d="m -1144,595.3622 h 24 v 24 h -24 z " />
    <path
      id="path22219"
      style="connector-curvature:0;opacity:1;fill-opacity:1;stroke-width:1.15467;"
      d="m 1132.9993,595.3622 h -2 v 24 h 2 z " />
    <path
      id="path22225"
      style="connector-curvature:0;opacity:1;nodetypes:cccccccccccccccccccccccccccccc;"
      d="m 1122.9994,607.3621 v 4 h 6 v -4 z m 11.9998,0 v 4 h 6 v -4 z m -9.9998,-5 v 3 h 4 v -3 z m 9.9998,0 v 3 h 4 v -3 z m -13.9998,-7 v 5 h 8 v -5 z m 13.9998,0 v 5 h 8 v -5 z " />
    <path
      id="path22227"
      style="connector-curvature:0;opacity:0.5;"
      transform="matrix(1.4999993,0,0,1.5000015,1119.9994,595.36228)"
      d="m 4.6660156,12 v 1.333984 H 0 v 1.332032 H 4.6660156 V 16 l 2,-2 z m 6.6679683,0 -1.9999996,2 1.9999996,2 V 14.666016 H 16 v -1.332032 h -4.666016 z " />
  </g>
</svg>
