<svg width="1500" xmlns:ev="http://www.w3.org/2001/xml-events" ed:name="页面-1" ed:hSpacing="30" xmlns:ed="https://www.edrawsoft.com/xml/2017/SVGExtensions/" height="659" ed:vSpacing="30" xmlns:xlink="http://www.w3.org/1999/xlink" xmlns="http://www.w3.org/2000/svg" id="page100" viewBox="0 0 1500 659"><style type="text/css"><![CDATA[
g[ed\:togtopicid],g[ed\:hyperlink],g[ed\:comment],g[ed\:note] {cursor:pointer;}
g[id] {-moz-user-select: none;-ms-user-select: none;user-select: none;}
svg text::selection,svg tspan::selection{background-color: #4285f4;color: #ffffff;fill: #ffffff;}
.st20 {fill:#303030;font-family:微软雅黑;font-size:10pt}
.st21 {fill:#454545;font-family:微软雅黑;font-size:14pt;font-weight:bold}
.st23 {fill:#454545;font-size:10pt;font-weight:normal}
.st22 {fill:#ffffff;font-family:微软雅黑;font-size:14pt;font-weight:bold}
]]></style><defs/><rect x="0" width="1500" height="659" fill="#b2bcbc" y="0"/><path d="M-31,-31.5C9.8,61.9,20.2,61.9,43.9,61.9L63.7,61.9" ed:parentid="101" stroke-width="3" stroke-linecap="round" stroke-linejoin="round" ed:tosuperid="102" stroke="#ee7c31" fill="none" id="103" transform="matrix(1,0,0,1,541.77,389.23)"/><path d="M-43.4,-71.4C9,101.7,19.2,101.7,43.9,101.7L63.7,101.7" ed:parentid="101" stroke-width="3" stroke-linecap="round" stroke-linejoin="round" ed:tosuperid="104" stroke="#ee7c31" fill="none" id="105" transform="matrix(1,0,0,1,541.77,429.06)"/><path d="M-49.3,-111.2C8.7,141.5,18.8,141.5,43.9,141.5L63.7,141.5" ed:parentid="101" stroke-width="3" stroke-linecap="round" stroke-linejoin="round" ed:tosuperid="106" stroke="#ee7c31" fill="none" id="107" transform="matrix(1,0,0,1,541.77,468.89)"/><path d="M13.2,-6.6C-11.5,37,-22.1,37,-43.9,37L-63.7,37" ed:parentid="101" stroke-width="3" stroke-linecap="round" stroke-linejoin="round" ed:tosuperid="110" stroke="#ee7c31" fill="none" id="111" transform="matrix(1,0,0,1,414.34,364.33)"/><path d="M-5.3,-1.2C12.3,22,22.9,22,43.9,22L63.7,22" ed:parentid="101" stroke-width="3" stroke-linecap="round" stroke-linejoin="round" ed:tosuperid="114" stroke="#ee7c31" fill="none" id="115" transform="matrix(1,0,0,1,541.77,349.39)"/><path d="M-49.3,111.2C8.7,-141.5,18.8,-141.5,43.9,-141.5L63.7,-141.5" ed:parentid="101" stroke-width="3" stroke-linecap="round" stroke-linejoin="round" ed:tosuperid="116" stroke="#ee7c31" fill="none" id="117" transform="matrix(1,0,0,1,541.77,185.85)"/><path d="M0.7,-5C15,-17.8,25.4,-17.8,43.9,-17.8L63.7,-17.8" ed:parentid="101" stroke-width="3" stroke-linecap="round" stroke-linejoin="round" ed:tosuperid="118" stroke="#ee7c31" fill="none" id="119" transform="matrix(1,0,0,1,541.77,309.56)"/><path d="M-0.7,-0.1C-15,-0.5,-25.4,-0.5,-43.9,-0.5L-63.7,-0.5" ed:parentid="101" stroke-width="3" stroke-linecap="round" stroke-linejoin="round" ed:tosuperid="140" stroke="#ee7c31" fill="none" id="141" transform="matrix(1,0,0,1,414.34,326.91)"/><path d="M14.4,8.8C-11.2,-37,-21.7,-37,-43.9,-37L-63.7,-37" ed:parentid="101" stroke-width="3" stroke-linecap="round" stroke-linejoin="round" ed:tosuperid="142" stroke="#ee7c31" fill="none" id="143" transform="matrix(1,0,0,1,414.34,290.41)"/><g ed:parentid="140" ed:topictype="callout" ed:layout="leftmap" ed:width="73.70666666666665" ed:height="35" id="144" transform="matrix(1,0,0,1,22,313.29)"><path d="M17.5,0L56.2,0C63.8,0,70.3,4.9,72.7,11.7L158.4,15L73.2,21.8C71.3,29.4,64.4,35,56.2,35L17.5,35C7.8,35,0,27.2,0,17.5C0,7.8,7.8,0,17.5,0z" stroke-width="2" stroke-linejoin="round" stroke="#ffaf00" fill="#ffffff"/><text class="st20"><tspan x="15" style="white-space:pre" y="21.3">library</tspan></text></g><g ed:parentid="118" ed:topictype="callout" ed:layout="rightmap" ed:width="609.28" ed:height="377" id="145" transform="matrix(1,0,0,1,868.23,100.67)"><path d="M188.5,0L420.8,0C524.9,0,609.3,84.4,609.3,188.5C609.3,292.6,524.9,377,420.8,377L188.5,377C86.6,377,3.6,296.1,0.1,195.1L-133.2,190.7L0,185.1C1.9,82.5,85.5,0,188.5,0z" stroke-width="2" stroke-linejoin="round" stroke="#ffaf00" fill="#ffffff"/><text class="st20"><tspan x="138" style="white-space:pre" y="21.3">type Node[T comparable] interface {</tspan><tspan x="138" style="white-space:pre" y="39.3">	fmt.Stringer</tspan><tspan x="138" style="white-space:pre" y="57.3">	UUID() uuid.UUID</tspan><tspan x="138" style="white-space:pre" y="75.3">	Clone(newParent T, preserveID bool) T</tspan><tspan x="138" style="white-space:pre" y="93.3">	Kind() string</tspan><tspan x="138" style="white-space:pre" y="111.3">	Container() bool</tspan><tspan x="138" style="white-space:pre" y="129.3">	Parent() T</tspan><tspan x="138" style="white-space:pre" y="147.3">	SetParent(parent T)</tspan><tspan x="138" style="white-space:pre" y="165.3">	HasChildren() bool</tspan><tspan x="138" style="white-space:pre" y="183.3">	NodeChildren() []T</tspan><tspan x="138" style="white-space:pre" y="201.3">	SetChildren(children []T)</tspan><tspan x="138" style="white-space:pre" y="219.3">	Enabled() bool</tspan><tspan x="138" style="white-space:pre" y="237.3">	Open() bool</tspan><tspan x="138" style="white-space:pre" y="255.3">	SetOpen(open bool)</tspan><tspan x="138" style="white-space:pre" y="273.3">	CellData(columnID int, data *CellData)</tspan><tspan x="138" style="white-space:pre" y="291.3">	FillWithNameableKeys(m map[string]string)</tspan><tspan x="138" style="white-space:pre" y="309.3">	ApplyNameableKeys(m map[string]string)</tspan><tspan x="138" style="white-space:pre" y="327.3">	CopyFrom(T)</tspan><tspan x="138" style="white-space:pre" y="345.3">	ApplyTo(T)</tspan><tspan x="138" style="white-space:pre" y="363.3">}</tspan></text></g><g ed:topictype="mainidea" ed:layout="map" ed:width="128.8666666666667" ed:height="60.66666666666667" id="101" transform="matrix(1,0,0,1,413.62,297.04)"><path d="M40.4,0L128.9,0L128.9,26.6L128.9,34C128.9,48.7,116.9,60.7,104.6,60.7L40.4,60.7L0,60.7L0,26.6C0,11.9,11.9,0,24.3,0L40.4,0z" stroke-width="3" stroke-linejoin="round" stroke="#303030" fill="#ef9a9c"/><text class="st21"><tspan x="21" style="white-space:pre" y="36.8">naryTree</tspan></text></g><g ed:parentid="101" ed:layout="rightmap" ed:width="73.53333333333333" ed:height="46.66666666666667" id="102" transform="matrix(1,0,0,1,605.49,427.75)"><path d="M23.1,0L73.5,0L73.5,20.5L73.5,26.2C73.5,37.5,64.4,46.7,54.9,46.7L23.1,46.7L0,46.7L0,20.5C0,9.2,9.2,0,18.7,0L23.1,0z" stroke-width="3" stroke-linejoin="round" stroke="#ee7c31" fill="#ee7c31"/><text class="st22"><tspan x="20" style="white-space:pre" y="29.8">acc</tspan></text></g><g ed:parentid="101" ed:layout="rightmap" ed:width="100.2" ed:height="46.66666666666667" id="104" transform="matrix(1,0,0,1,605.49,507.41)"><path d="M31.4,0L100.2,0L100.2,20.5L100.2,26.2C100.2,37.5,91,46.7,81.5,46.7L31.4,46.7L0,46.7L0,20.5C0,9.2,9.2,0,18.7,0L31.4,0z" stroke-width="3" stroke-linejoin="round" stroke="#ee7c31" fill="#ee7c31"/><text class="st22"><tspan x="20" style="white-space:pre" y="29.8">。。。</tspan></text></g><g ed:parentid="101" ed:layout="rightmap" ed:width="100.2" ed:height="46.66666666666667" id="106" transform="matrix(1,0,0,1,605.49,587.08)"><path d="M31.4,0L100.2,0L100.2,20.5L100.2,26.2C100.2,37.5,91,46.7,81.5,46.7L31.4,46.7L0,46.7L0,20.5C0,9.2,9.2,0,18.7,0L31.4,0z" stroke-width="3" stroke-linejoin="round" stroke="#ee7c31" fill="#ee7c31"/><text class="st22"><tspan x="20" style="white-space:pre" y="29.8">。。。</tspan></text></g><g ed:parentid="101" ed:layout="leftmap" ed:width="164.2" ed:height="40" id="110" transform="matrix(1,0,0,1,186.42,381.29)"><path d="M51.5,0L164.2,0L164.2,17.6L164.2,22.4C164.2,32.1,156.3,40,148.2,40L51.5,40L0,40L0,17.6C0,7.9,7.9,0,16,0L51.5,0z" stroke-width="3" stroke-linejoin="round" stroke="#ee7c31" fill="#ee7c31"/><text class="st22"><tspan x="18" class="st23" style="white-space:pre" y="23.8">ast+codeGen struct</tspan></text></g><g ed:parentid="101" ed:layout="rightmap" ed:width="72.86666666666667" ed:height="46.66666666666667" id="114" transform="matrix(1,0,0,1,605.49,348.08)"><path d="M22.9,0L72.9,0L72.9,20.5L72.9,26.2C72.9,37.5,63.7,46.7,54.2,46.7L22.9,46.7L0,46.7L0,20.5C0,9.2,9.2,0,18.7,0L22.9,0z" stroke-width="3" stroke-linejoin="round" stroke="#ee7c31" fill="#ee7c31"/><text class="st22"><tspan x="20" style="white-space:pre" y="29.8">tdf</tspan></text></g><g ed:parentid="101" ed:layout="rightmap" ed:width="82.86666666666667" ed:height="46.66666666666667" id="116" transform="matrix(1,0,0,1,605.49,21)"><path d="M26,0L82.9,0L82.9,20.5L82.9,26.2C82.9,37.5,73.7,46.7,64.2,46.7L26,46.7L0,46.7L0,20.5C0,9.2,9.2,0,18.7,0L26,0z" stroke-width="3" stroke-linejoin="round" stroke="#ee7c31" fill="#ee7c31"/><text class="st22"><tspan x="20" style="white-space:pre" y="29.8">json</tspan></text></g><g ed:parentid="101" ed:layout="rightmap" ed:width="129.5333333333333" ed:height="46.66666666666667" id="118" transform="matrix(1,0,0,1,605.49,268.41)"><path d="M40.6,0L129.5,0L129.5,20.5L129.5,26.2C129.5,37.5,120.4,46.7,110.9,46.7L40.6,46.7L0,46.7L0,20.5C0,9.2,9.2,0,18.7,0L40.6,0z" stroke-width="3" stroke-linejoin="round" stroke="#ee7c31" fill="#ee7c31"/><text class="st22"><tspan x="20" style="white-space:pre" y="29.8">protobuf</tspan></text></g><g ed:parentid="101" ed:layout="leftmap" ed:width="170.2" ed:height="40" id="140" transform="matrix(1,0,0,1,180.42,306.46)"><path d="M53.4,0L170.2,0L170.2,17.6L170.2,22.4C170.2,32.1,162.3,40,154.2,40L53.4,40L0,40L0,17.6C0,7.9,7.9,0,16,0L53.4,0z" stroke-width="3" stroke-linejoin="round" stroke="#ee7c31" fill="#ee7c31"/><text class="st22"><tspan x="18" class="st23" style="white-space:pre" y="23.8">unsafe+reflect struct</tspan></text></g><g ed:parentid="101" ed:layout="leftmap" ed:width="118.8666666666667" ed:height="40" id="142" transform="matrix(1,0,0,1,231.75,233.46)"><path d="M37.3,0L118.9,0L118.9,17.6L118.9,22.4C118.9,32.1,111,40,102.9,40L37.3,40L0,40L0,17.6C0,7.9,7.9,0,16,0L37.3,0z" stroke-width="3" stroke-linejoin="round" stroke="#ee7c31" fill="#ee7c31"/><text class="st22"><tspan x="18" class="st23" style="white-space:pre" y="23.8">reflect struct</tspan></text></g></svg>