<svg xmlns="http://www.w3.org/2000/svg" xml:space="preserve" id="Layer_1" x="0" y="0" style="enable-background:new 0 0 24 24" version="1.1" viewBox="0 0 24 24"><path d="M18 23H6c-2.8 0-5-2.2-5-5V6c0-2.8 2.2-5 5-5h12c2.8 0 5 2.2 5 5v12c0 2.8-2.2 5-5 5z" style="fill:#005bc0"/><path d="M5.9 20.4c-.7 0-1.2-.2-1.7-.7-.5-.5-.7-1-.7-1.7V5.9c0-.7.2-1.2.7-1.7.5-.5 1-.7 1.7-.7h12.2c.7 0 1.2.2 1.7.7.5.5.7 1 .7 1.7v12.2c0 .7-.2 1.2-.7 1.7-.5.5-1 .7-1.7.7 0-.1-12.2-.1-12.2-.1zm0-4v1.7h12.2v-7.3L13 16.6 9.4 13l-3.5 3.4zm0-2.8 3.4-3.4 3.5 3.5L18 7.8V5.9H5.9v7.7zm0-2.8v-3 5.9-3.5 6.3V13v3.6-5.8zm0 2.8V5.9v7.7-3.4 3.4zm0 2.8V13v3.6-5.8 7.3-1.7z" style="fill:#fbbd0e"/></svg>