<svg xmlns="http://www.w3.org/2000/svg" xml:space="preserve" id="Layer_1" x="0" y="0" style="enable-background:new 0 0 24 24" version="1.1" viewBox="0 0 24 24"><path d="M18 23H6c-2.8 0-5-2.2-5-5V6c0-2.8 2.2-5 5-5h12c2.8 0 5 2.2 5 5v12c0 2.8-2.2 5-5 5z" style="fill:#005bc0"/><path d="M5.2 21.5c-.7 0-1.4-.3-1.9-.8s-.8-1.1-.8-1.9V5.2c0-.7.3-1.4.8-1.9s1.1-.8 1.9-.8h13.7c.7 0 1.4.3 1.9.8s.8 1.1.8 1.9v13.7c0 .7-.3 1.4-.8 1.9s-1.1.8-1.9.8c-.1-.1-13.7-.1-13.7-.1zm0-4.5v1.9h13.7v-8.2l-5.7 6.5L9 13.1 5.2 17zm0-3.2L9 9.9l3.9 3.9 5.8-6.6v-2H5.2v8.6zm0-3.2V7.3v6.6-4 7V13v4.1-6.5zm0 3.2V5.2v8.6-3.9 3.9zm0 3.2v-3.9 4.1-6.5 8.2V17z" style="fill:#fbbd0e"/></svg>