<svg xmlns="http://www.w3.org/2000/svg" xml:space="preserve" id="Layer_1" x="0" y="0" style="enable-background:new 0 0 24 24" version="1.1" viewBox="0 0 24 24"><path d="M18 23H6c-2.8 0-5-2.2-5-5V6c0-2.8 2.2-5 5-5h12c2.8 0 5 2.2 5 5v12c0 2.8-2.2 5-5 5z" style="fill:#005bc0"/><path d="M4.5 19.8c-.6 0-1.1-.2-1.5-.6s-.6-.9-.6-1.5V6.4c0-.6.2-1.1.6-1.5.4-.4.9-.6 1.5-.6H10l2 2h7.5c.6 0 1.1.2 1.5.6.4.4.6.9.6 1.5v9.2c0 .6-.2 1.1-.6 1.5s-.9.6-1.5.6c0 .1-15 .1-15 .1zm0-2.2h15V8.4h-8.4l-2-2H4.5v11.2zm0 0V6.4v11.2z" style="fill:#fbbd0e"/></svg>