<svg xmlns="http://www.w3.org/2000/svg" xml:space="preserve" id="Layer_1" x="0" y="0" style="enable-background:new 0 0 24 24" version="1.1" viewBox="0 0 24 24"><path d="M18 23H6c-2.8 0-5-2.2-5-5V6c0-2.8 2.2-5 5-5h12c2.8 0 5 2.2 5 5v12c0 2.8-2.2 5-5 5z" style="fill:#005bc0"/><path d="M5 19.3c-.6 0-1-.2-1.4-.6s-.6-.9-.6-1.4V6.7c0-.6.2-1 .6-1.4s.8-.6 1.4-.6h5.2L12 6.6h7c.6 0 1 .2 1.4.6.4.4.6.8.6 1.4v8.7c0 .6-.2 1-.6 1.4s-.9.6-1.4.6H5zm0-2h14V8.6h-7.9L9.3 6.7H5v10.6zm0 0V6.7v10.6z" style="fill:#fbbd0e"/></svg>